<svg xmlns="http://www.w3.org/2000/svg" viewBox="0 0 960 540" role="img" aria-label="串口MP3模块接线图">
  <rect width="960" height="540" rx="36" fill="#f5f5f7"/>
  <text x="70" y="70" font-family="Microsoft YaHei, Arial" font-size="34" fill="#1d1d1f" font-weight="850">串口 MP3 接线：TX/RX 要交叉</text>
  <g filter="drop-shadow(0 16px 22px rgba(0,0,0,.14))">
    <rect x="80" y="145" width="310" height="245" rx="30" fill="#1d1d1f"/>
    <rect x="122" y="184" width="226" height="74" rx="16" fill="#2c2c2e"/>
    <text x="235" y="304" text-anchor="middle" font-family="Microsoft YaHei, Arial" font-size="30" fill="#fff" font-weight="800">掌控板</text>
    <circle cx="150" cy="360" r="16" fill="#007aff"/><text x="150" y="415" text-anchor="middle" font-family="Arial" font-size="22" fill="#1d1d1f" font-weight="700">P0/RX</text>
    <circle cx="250" cy="360" r="16" fill="#ff9f0a"/><text x="250" y="415" text-anchor="middle" font-family="Arial" font-size="22" fill="#1d1d1f" font-weight="700">P1/TX</text>
    <circle cx="340" cy="360" r="16" fill="#6e6e73"/><text x="340" y="415" text-anchor="middle" font-family="Arial" font-size="22" fill="#1d1d1f" font-weight="700">GND</text>
  </g>
  <g filter="drop-shadow(0 16px 22px rgba(0,0,0,.14))">
    <rect x="620" y="138" width="260" height="250" rx="34" fill="#ff9f0a"/>
    <rect x="676" y="185" width="148" height="78" rx="14" fill="#fff" opacity=".94"/>
    <circle cx="708" cy="314" r="18" fill="#fff" opacity=".95"/><circle cx="792" cy="314" r="18" fill="#fff" opacity=".95"/>
    <text x="750" y="354" text-anchor="middle" font-family="Microsoft YaHei, Arial" font-size="28" fill="#fff" font-weight="850">串口MP3</text>
    <text x="642" y="180" font-family="Arial" font-size="22" fill="#fff" font-weight="800">VCC</text>
    <text x="642" y="214" font-family="Arial" font-size="22" fill="#fff" font-weight="800">GND</text>
    <text x="642" y="248" font-family="Arial" font-size="22" fill="#fff" font-weight="800">TX</text>
    <text x="642" y="282" font-family="Arial" font-size="22" fill="#fff" font-weight="800">RX</text>
  </g>
  <path d="M642 178 C520 155 442 155 342 210" stroke="#ffcc00" stroke-width="10" fill="none" stroke-linecap="round"/>
  <path d="M642 212 C530 236 445 285 340 360" stroke="#6e6e73" stroke-width="10" fill="none" stroke-linecap="round"/>
  <path d="M642 246 C520 300 420 350 150 360" stroke="#007aff" stroke-width="10" fill="none" stroke-linecap="round"/>
  <path d="M642 280 C520 330 420 365 250 360" stroke="#ff9f0a" stroke-width="10" fill="none" stroke-linecap="round"/>
  <text x="480" y="468" text-anchor="middle" font-family="Microsoft YaHei, Arial" font-size="25" fill="#424245">模块 TX → 掌控板 RX(P0)，模块 RX → 掌控板 TX(P1)</text>
</svg>
